<svg width="42" height="30" viewBox="0 0 42 30" fill="none" xmlns="http://www.w3.org/2000/svg">
<path d="M10.7734 8.31264V5.99907C10.7734 2.6953 15.3339 0 20.9987 0C26.6636 0 31.224 2.6953 31.224 5.99907V8.31264H38.2918C38.6156 8.31277 38.9273 8.3823 39.1641 8.50723C39.4008 8.63215 39.5451 8.80319 39.5679 8.98589L41.9974 29.2296C42.0188 29.4208 41.9057 29.6091 41.6828 29.7534C41.4598 29.8977 41.1451 29.9863 40.8072 30H1.27612C0.937672 30 0.613086 29.9239 0.373767 29.7886C0.134448 29.6532 0 29.4696 0 29.2782V29.2296L2.42954 8.98589C2.4513 8.80277 2.59518 8.63116 2.83207 8.50576C3.06896 8.38035 3.3812 8.3105 3.70566 8.31033L10.7734 8.31264ZM14.6099 8.31264H27.3916V5.99907C27.3916 3.87291 24.5285 2.16781 20.9987 2.16781C17.4689 2.16781 14.6099 3.87291 14.6099 5.99907V8.31264ZM4.01242 27.8345H37.985L35.9072 10.4828H6.09429L4.01242 27.8345Z" fill="#1096F6"/>
</svg>
