<svg width="45" height="30" viewBox="0 0 45 30" fill="none" xmlns="http://www.w3.org/2000/svg">
<path d="M44.3681 27.4709L36.0256 21.95C39.2639 19.2561 40.8321 15.8369 40.4078 12.3953C39.9835 8.95378 37.5989 5.75147 33.7444 3.44689C29.8898 1.1423 24.8583 -0.0893989 19.6844 0.00505728C14.5105 0.0995135 9.58745 1.51294 5.92757 3.95472C2.26769 6.39649 0.149157 9.68101 0.00758016 13.1329C-0.133997 16.5848 1.71215 19.9417 5.1664 22.5133C8.62066 25.085 13.4205 26.6759 18.5789 26.959C23.7373 27.2421 28.8623 26.1958 32.9 24.0353L41.175 29.5562C41.3841 29.6968 41.6328 29.8085 41.9068 29.8846C42.1808 29.9608 42.4748 30 42.7716 30C43.0685 30 43.3624 29.9608 43.6364 29.8846C43.9104 29.8085 44.1591 29.6968 44.3681 29.5562C44.7734 29.2765 45 28.9026 45 28.5136C45 28.1245 44.7734 27.7506 44.3681 27.4709ZM20.285 24.0353C17.1718 24.0353 14.1285 23.4194 11.5399 22.2655C8.9514 21.1115 6.93388 19.4714 5.74251 17.5524C4.55114 15.6335 4.23942 13.5219 4.84678 11.4848C5.45413 9.44766 6.95328 7.57643 9.15465 6.10774C11.356 4.63904 14.1607 3.63885 17.2141 3.23364C20.2675 2.82843 23.4324 3.0364 26.3087 3.83125C29.1849 4.6261 31.6432 5.97213 33.3728 7.69913C35.1024 9.42614 36.0256 11.4565 36.0256 13.5336C36.0256 16.3188 34.3672 18.99 31.4153 20.9594C28.4633 22.9289 24.4596 24.0353 20.285 24.0353Z" fill="#9B9393"/>
</svg>
