<svg width="41" height="30" viewBox="0 0 41 30" fill="none" xmlns="http://www.w3.org/2000/svg">
<path d="M2.27778 30H38.7222C39.975 30 41 28.875 41 27.5C41 26.125 39.975 25 38.7222 25H2.27778C1.025 25 0 26.125 0 27.5C0 28.875 1.025 30 2.27778 30ZM2.27778 17.5H38.7222C39.975 17.5 41 16.375 41 15C41 13.625 39.975 12.5 38.7222 12.5H2.27778C1.025 12.5 0 13.625 0 15C0 16.375 1.025 17.5 2.27778 17.5ZM0 2.5C0 3.875 1.025 5 2.27778 5H38.7222C39.975 5 41 3.875 41 2.5C41 1.125 39.975 0 38.7222 0H2.27778C1.025 0 0 1.125 0 2.5Z" fill="#9B9393"/>
</svg>
