<svg width="42" height="30" viewBox="0 0 42 30" fill="none" xmlns="http://www.w3.org/2000/svg">
<path d="M21 14.4869C18.6134 14.4871 16.2804 14.0625 14.2959 13.2667C12.3114 12.4709 10.7646 11.3396 9.85104 10.0161C8.93752 8.69254 8.69833 7.23609 9.16372 5.83094C9.62912 4.42578 10.7782 3.13503 12.4656 2.12191C14.1531 1.1088 16.3031 0.418827 18.6437 0.139256C20.9844 -0.140314 23.4106 0.00307333 25.6155 0.551284C27.8205 1.0995 29.7051 2.02791 31.031 3.21911C32.3569 4.41031 33.0646 5.8108 33.0646 7.24346C33.0616 9.16381 31.7896 11.005 29.5277 12.363C27.2659 13.721 24.199 14.4848 21 14.4869ZM21 2.08889C19.3013 2.0887 17.6406 2.39092 16.228 2.95735C14.8154 3.52377 13.7144 4.32895 13.0642 5.27105C12.414 6.21314 12.2438 7.24983 12.5751 8.25C12.9064 9.25018 13.7244 10.1689 14.9256 10.89C16.1267 11.6111 17.6572 12.1021 19.3233 12.301C20.9894 12.4999 22.7163 12.3977 24.2857 12.0074C25.855 11.617 27.1963 10.9561 28.1399 10.1081C29.0834 9.26013 29.5869 8.26322 29.5866 7.24346C29.584 5.87687 28.6785 4.56669 27.0687 3.60036C25.459 2.63403 23.2765 2.09046 21 2.08889ZM40.261 30H1.73903L0 28.956C-4.10938e-08 27.3006 0.543181 25.6613 1.59853 24.1318C2.65388 22.6023 4.20073 21.2126 6.15076 20.042C8.10079 18.8714 10.4158 17.9428 12.9636 17.3092C15.5115 16.6757 18.2422 16.3496 21 16.3496C23.7578 16.3496 26.4885 16.6757 29.0363 17.3092C31.5842 17.9428 33.8992 18.8714 35.8492 20.042C37.7993 21.2126 39.3461 22.6023 40.4015 24.1318C41.4568 25.6613 42 27.3006 42 28.956L40.261 30ZM3.56033 27.9121H38.4397C38.0144 25.3127 35.9934 22.9012 32.7699 21.1468C29.5464 19.3925 25.351 18.4208 21 18.4208C16.649 18.4208 12.4536 19.3925 9.23009 21.1468C6.00661 22.9012 3.98561 25.3127 3.56033 27.9121Z" fill="#9B9393"/>
</svg>
